# Blender v2.83.12 OBJ File: 'raw_cornell.blend'
# www.blender.org
mtllib raw_cornell.mtl
o Cornell
v 1.000000 1.000000 1.000000
v 1.000000 1.000000 -1.000000
v 1.000000 -1.000000 1.000000
v 1.000000 -1.000000 -1.000000
v -1.000000 1.000000 1.000000
v -1.000000 1.000000 -1.000000
v -1.000000 -1.000000 1.000000
v -1.000000 -1.000000 -1.000000
vt 0.375000 0.000000
vt 0.625000 0.000000
vt 0.625000 0.250000
vt 0.375000 0.250000
vt 0.375000 0.500000
vt 0.625000 0.500000
vt 0.625000 0.750000
vt 0.375000 0.750000
vt 0.875000 0.500000
vt 0.875000 0.750000
vt 0.125000 0.500000
vt 0.125000 0.750000
vn -1.0000 0.0000 0.0000
vn 1.0000 0.0000 0.0000
vn 0.0000 0.0000 1.0000
vn 0.0000 0.0000 -1.0000
vn 0.0000 1.0000 0.0000
usemtl leftWall
s off
f 8/1/1 7/2/1 5/3/1 6/4/1
usemtl rightWall
f 2/5/2 1/6/2 3/7/2 4/8/2
usemtl ceiling
f 1/6/3 5/9/3 7/10/3 3/7/3
usemtl floor
f 6/11/4 2/5/4 4/8/4 8/12/4
usemtl backWall
f 6/4/5 5/3/5 1/6/5 2/5/5
